<?xml version="1.0" encoding="UTF-8" standalone="no"?>
<!-- Created with Inkscape (http://www.inkscape.org/) -->
<svg
   xmlns:svg="http://www.w3.org/2000/svg"
   xmlns="http://www.w3.org/2000/svg"
   version="1.0"
   width="240"
   height="64"
   id="svg6218">
  <defs
     id="defs6220" />
  <g
     id="layer1">
    <path
       d="M 26,-23.5 C 26,-15.768014 19.731986,-9.5 12,-9.5 C 4.2680135,-9.5 -2,-15.768014 -2,-23.5 C -2,-31.231986 4.2680135,-37.5 12,-37.5 C 19.731986,-37.5 26,-31.231986 26,-23.5 L 26,-23.5 z"
       transform="matrix(0.887835,0,0,0.887835,43.95985,67.23299)"
       id="path13406"
       style="fill:#ffffff;fill-opacity:1;fill-rule:nonzero;stroke:#676767;stroke-width:0.56972009;stroke-linecap:round;stroke-linejoin:miter;marker:none;marker-start:none;marker-mid:none;marker-end:none;stroke-miterlimit:4;stroke-dasharray:none;stroke-dashoffset:0;stroke-opacity:1;visibility:visible;display:inline;overflow:visible" />
    <path
       d="M 44.690022,51.484634 L 44.690022,42.985282 L 50.992066,42.985282 L 50.992066,44.423099 L 46.406126,44.423099 L 46.406126,46.307334 L 50.673195,46.307334 L 50.673195,47.739354 L 46.406126,47.739354 L 46.406126,50.052615 L 51.1544,50.052615 L 51.1544,51.484634 L 44.690022,51.484634 z M 53.827116,51.484634 L 51.797939,42.985282 L 53.554626,42.985282 L 54.835906,48.823514 L 56.389676,42.985282 L 58.430448,42.985282 L 59.920444,48.922074 L 61.224915,42.985282 L 62.952614,42.985282 L 60.888651,51.484634 L 59.06819,51.484634 L 57.375276,45.130412 L 55.688161,51.484634 L 53.827116,51.484634 z"
       transform="scale(1.014726,0.985488)"
       id="text13438"
       style="font-size:11.87358379px;font-style:normal;font-variant:normal;font-weight:bold;font-stretch:normal;text-align:center;line-height:125%;writing-mode:lr-tb;text-anchor:middle;fill:#333333;fill-opacity:1;stroke:none;stroke-width:1px;stroke-linecap:butt;stroke-linejoin:miter;stroke-opacity:1;display:inline;font-family:FreeSans" />
    <path
       d="M 26,-23.5 C 26,-15.768014 19.731986,-9.5 12,-9.5 C 4.2680135,-9.5 -2,-15.768014 -2,-23.5 C -2,-31.231986 4.2680135,-37.5 12,-37.5 C 19.731986,-37.5 26,-31.231986 26,-23.5 L 26,-23.5 z"
       transform="matrix(0.887835,0,0,0.887835,139.0614,67.23299)"
       id="path13412"
       style="fill:#ffffff;fill-opacity:1;fill-rule:nonzero;stroke:#676767;stroke-width:0.56972009;stroke-linecap:round;stroke-linejoin:miter;marker:none;marker-start:none;marker-mid:none;marker-end:none;stroke-miterlimit:4;stroke-dasharray:none;stroke-dashoffset:0;stroke-opacity:1;visibility:visible;display:inline;overflow:visible" />
    <path
       d="M 142.79739,51.484642 L 139.75942,42.985283 L 141.62046,42.985283 L 143.77139,49.275736 L 145.85275,42.985283 L 147.67321,42.985283 L 144.62945,51.484642 L 142.79739,51.484642 z M 148.54866,42.985283 L 150.26476,42.985283 L 150.26476,47.588619 C 150.26476,48.319127 150.28602,48.792601 150.32854,49.009044 C 150.40197,49.356906 150.57687,49.636159 150.85323,49.846805 C 151.12958,50.057455 151.50739,50.162778 151.98667,50.162777 C 152.47366,50.162778 152.84085,50.063252 153.08822,49.864198 C 153.33558,49.665147 153.48439,49.42068 153.53464,49.130795 C 153.58488,48.840915 153.61,48.35971 153.61001,47.687179 L 153.61001,42.985283 L 155.32611,42.985283 L 155.32611,47.449476 C 155.32611,48.469865 155.27973,49.190706 155.18697,49.612 C 155.0942,50.033298 154.92317,50.388887 154.67388,50.678768 C 154.42457,50.968651 154.09121,51.199591 153.67378,51.371588 C 153.25635,51.543585 152.71137,51.629583 152.03885,51.629583 C 151.22717,51.629583 150.61165,51.535855 150.19229,51.348397 C 149.77293,51.16094 149.4415,50.917439 149.198,50.617893 C 148.95449,50.318349 148.79409,50.004309 148.71679,49.675774 C 148.6047,49.188774 148.54866,48.469865 148.54866,47.519047 L 148.54866,42.985283 z"
       transform="scale(1.014726,0.985488)"
       id="text13426"
       style="font-size:11.87359333px;font-style:normal;font-variant:normal;font-weight:bold;font-stretch:normal;text-align:center;line-height:125%;writing-mode:lr-tb;text-anchor:middle;fill:#333333;fill-opacity:1;stroke:none;stroke-width:1px;stroke-linecap:butt;stroke-linejoin:miter;stroke-opacity:1;display:inline;font-family:FreeSans" />
    <path
       d="M 26,-23.5 C 26,-15.768014 19.731986,-9.5 12,-9.5 C 4.2680135,-9.5 -2,-15.768014 -2,-23.5 C -2,-31.231986 4.2680135,-37.5 12,-37.5 C 19.731986,-37.5 26,-31.231986 26,-23.5 L 26,-23.5 z"
       transform="matrix(0.887835,0,0,0.887835,107.3609,67.23299)"
       id="path13410"
       style="fill:#ffffff;fill-opacity:1;fill-rule:nonzero;stroke:#676767;stroke-width:0.5698207;stroke-linecap:round;stroke-linejoin:miter;marker:none;marker-start:none;marker-mid:none;marker-end:none;stroke-miterlimit:4;stroke-dasharray:none;stroke-dashoffset:0;stroke-opacity:1;visibility:visible;display:inline;overflow:visible" />
    <path
       d="M 108.95667,51.484642 L 108.95667,42.985284 L 115.25872,42.985284 L 115.25872,44.423102 L 110.67278,44.423102 L 110.67278,46.307339 L 114.93985,46.307339 L 114.93985,47.739359 L 110.67278,47.739359 L 110.67278,50.052622 L 115.42105,50.052622 L 115.42105,51.484642 L 108.95667,51.484642 z M 116.90525,51.484642 L 116.90525,42.985284 L 118.57498,42.985284 L 122.05357,48.661185 L 122.05357,42.985284 L 123.64792,42.985284 L 123.64792,51.484642 L 121.92602,51.484642 L 118.49961,45.942087 L 118.49961,51.484642 L 116.90525,51.484642 z"
       transform="scale(1.014726,0.985488)"
       id="text13430"
       style="font-size:11.87359142px;font-style:normal;font-variant:normal;font-weight:bold;font-stretch:normal;text-align:center;line-height:125%;writing-mode:lr-tb;text-anchor:middle;fill:#333333;fill-opacity:1;stroke:none;stroke-width:1px;stroke-linecap:butt;stroke-linejoin:miter;stroke-opacity:1;display:inline;font-family:FreeSans" />
    <path
       d="M 26,-23.5 C 26,-15.768014 19.731986,-9.5 12,-9.5 C 4.2680135,-9.5 -2,-15.768014 -2,-23.5 C -2,-31.231986 4.2680135,-37.5 12,-37.5 C 19.731986,-37.5 26,-31.231986 26,-23.5 L 26,-23.5 z"
       transform="matrix(0.887835,0,0,0.887835,75.66037,67.23299)"
       id="path13408"
       style="fill:#ffffff;fill-opacity:1;fill-rule:nonzero;stroke:#676767;stroke-width:0.56972009;stroke-linecap:round;stroke-linejoin:miter;marker:none;marker-start:none;marker-mid:none;marker-end:none;stroke-miterlimit:4;stroke-dasharray:none;stroke-dashoffset:0;stroke-opacity:1;visibility:visible;display:inline;overflow:visible" />
    <path
       d="M 82.536931,48.35971 L 84.200856,48.887296 C 83.945752,49.814921 83.521558,50.503874 82.928272,50.954157 C 82.334973,51.404441 81.582246,51.629583 80.670088,51.629583 C 79.541476,51.629583 78.613853,51.24404 77.887217,50.472952 C 77.160578,49.701867 76.797259,48.647662 76.797259,47.310335 C 76.797259,45.895715 77.16251,44.797061 77.893015,44.014372 C 78.623516,43.231698 79.583992,42.840357 80.774446,42.840348 C 81.814152,42.840357 82.658675,43.147632 83.308018,43.762174 C 83.694521,44.125501 83.984403,44.647289 84.177665,45.327539 L 82.478955,45.733375 C 82.378456,45.29276 82.168774,44.944901 81.84991,44.689798 C 81.531034,44.434709 81.143558,44.307161 80.687481,44.307153 C 80.057466,44.307161 79.546307,44.533269 79.154003,44.985478 C 78.761693,45.437701 78.56554,46.170136 78.565542,47.182787 C 78.56554,48.257288 78.758794,49.022576 79.145307,49.478656 C 79.531813,49.934739 80.034276,50.16278 80.652695,50.162778 C 81.108772,50.16278 81.501079,50.017838 81.829618,49.727955 C 82.158145,49.438074 82.393916,48.981993 82.536931,48.35971 L 82.536931,48.35971 z M 85.685054,51.484642 L 85.685054,42.98529 L 89.296989,42.98529 C 90.205282,42.985298 90.865247,43.061634 91.276886,43.214297 C 91.688512,43.366976 92.018012,43.638499 92.265385,44.028866 C 92.512744,44.419248 92.636427,44.865667 92.636435,45.368123 C 92.636427,46.00587 92.44897,46.532489 92.074063,46.947982 C 91.699141,47.363484 91.138702,47.625345 90.392745,47.733564 C 90.763788,47.950013 91.070097,48.187716 91.311672,48.446674 C 91.553234,48.705639 91.878868,49.165585 92.288576,49.826515 L 93.326355,51.484642 L 91.273987,51.484642 L 90.03329,49.635192 C 89.592664,48.974263 89.291187,48.557799 89.128857,48.385799 C 88.966519,48.213805 88.794522,48.09592 88.612867,48.032142 C 88.431203,47.968372 88.143254,47.936485 87.749017,47.936481 L 87.401158,47.936481 L 87.401158,51.484642 L 85.685054,51.484642 z M 87.401158,46.579832 L 88.670843,46.579832 C 89.494104,46.579836 90.008162,46.545051 90.213018,46.475474 C 90.417862,46.405907 90.578264,46.286089 90.694222,46.11602 C 90.810169,45.945961 90.868146,45.733381 90.868152,45.478278 C 90.868146,45.192267 90.79181,44.961328 90.639145,44.785459 C 90.486468,44.609604 90.270989,44.498483 89.992707,44.452095 C 89.853558,44.432776 89.436128,44.423113 88.740415,44.423106 L 87.401158,44.423106 L 87.401158,46.579832 z"
       transform="scale(1.014726,0.985488)"
       id="text13442"
       style="font-size:11.87358379px;font-style:normal;font-variant:normal;font-weight:bold;font-stretch:normal;text-align:center;line-height:125%;writing-mode:lr-tb;text-anchor:middle;fill:#333333;fill-opacity:1;stroke:none;stroke-width:1px;stroke-linecap:butt;stroke-linejoin:miter;stroke-opacity:1;display:inline;font-family:FreeSans" />
    <path
       d="M 26,-23.5 C 26,-15.768014 19.731986,-9.5 12,-9.5 C 4.2680135,-9.5 -2,-15.768014 -2,-23.5 C -2,-31.231986 4.2680135,-37.5 12,-37.5 C 19.731986,-37.5 26,-31.231986 26,-23.5 L 26,-23.5 z"
       transform="matrix(0.887835,0,0,0.887835,12.25934,67.23299)"
       id="path13404"
       style="fill:#ffffff;fill-opacity:1;fill-rule:nonzero;stroke:#676767;stroke-width:0.56972009;stroke-linecap:round;stroke-linejoin:miter;marker:none;marker-start:none;marker-mid:none;marker-end:none;stroke-miterlimit:4;stroke-dasharray:none;stroke-dashoffset:0;stroke-opacity:1;visibility:visible;display:inline;overflow:visible" />
    <path
       d="M 15.096076,51.484634 L 15.096076,42.985279 L 21.398122,42.985279 L 21.398122,44.423096 L 16.812181,44.423096 L 16.812181,46.307332 L 21.079251,46.307332 L 21.079251,47.739352 L 16.812181,47.739352 L 16.812181,50.052615 L 21.560456,50.052615 L 21.560456,51.484634 L 15.096076,51.484634 z M 22.163412,51.484634 L 25.068035,47.049432 L 22.435902,42.985279 L 24.441889,42.985279 L 26.146398,45.715972 L 27.816122,42.985279 L 29.804716,42.985279 L 27.160987,47.113206 L 30.06561,51.484634 L 27.995849,51.484634 L 26.111612,48.545226 L 24.221578,51.484634 L 22.163412,51.484634 z"
       transform="scale(1.014726,0.985488)"
       id="text13434"
       style="font-size:11.87358856px;font-style:normal;font-variant:normal;font-weight:bold;font-stretch:normal;text-align:center;line-height:125%;writing-mode:lr-tb;text-anchor:middle;fill:#333333;fill-opacity:1;stroke:none;stroke-width:1px;stroke-linecap:butt;stroke-linejoin:miter;stroke-opacity:1;display:inline;font-family:FreeSans" />
    <path
       d="M 16.007354,17.696978 L 15.493552,17.914153 C 15.465297,17.769373 15.415859,17.621059 15.345238,17.46921 C 14.243473,17.755248 13.252947,17.96889 12.373658,18.110139 L 12.188266,17.612227 C 12.876865,17.14257 13.577826,16.365687 14.291148,15.281577 C 13.61667,15.422834 12.998695,15.530538 12.437222,15.60469 L 12.273017,15.096184 C 13.014586,14.308713 13.63256,13.236968 14.126943,11.880946 L 14.65134,12.066339 C 14.142831,13.372923 13.584888,14.345792 12.977509,14.984949 C 13.454231,14.931985 14.015705,14.827812 14.661933,14.67243 C 14.947964,14.220431 15.15631,13.81963 15.286972,13.470026 L 15.811368,13.729576 C 14.932073,15.438725 14.04219,16.674674 13.141714,17.437429 C 13.621967,17.366806 14.287614,17.218492 15.138657,16.992486 C 15.032715,16.759425 14.923245,16.545782 14.810248,16.351557 L 15.276378,16.123789 C 15.580064,16.593455 15.823723,17.117851 16.007354,17.696978 L 16.007354,17.696978 z M 21.579728,19.444966 C 21.551467,20.08413 21.446412,20.529072 21.26456,20.779793 C 21.082689,21.030515 20.818726,21.165586 20.472669,21.185009 C 20.126594,21.20443 19.635745,21.214141 19.000122,21.214142 C 18.060792,21.214141 17.459591,21.195602 17.196516,21.158524 C 16.933429,21.121445 16.745388,21.027866 16.632392,20.877787 C 16.519386,20.727707 16.462886,20.502587 16.462891,20.202428 L 16.462891,15.562314 C 16.402854,15.597632 16.265134,15.670024 16.04973,15.779489 L 15.647163,15.334546 C 16.258071,15.087362 16.77099,14.720991 17.185922,14.235433 C 17.600842,13.749887 17.833024,13.226374 17.882469,12.664892 L 16.070918,12.664892 L 16.070918,12.124605 L 21.124192,12.124605 C 21.113588,13.349969 21.024423,14.118024 20.856697,14.428771 C 20.688951,14.73953 20.459417,14.907266 20.168095,14.931979 C 19.876755,14.956704 19.535104,14.963767 19.143139,14.953167 L 18.867698,14.333426 C 19.125474,14.365214 19.358539,14.381105 19.566893,14.381098 C 19.874107,14.381105 20.078921,14.356386 20.181338,14.306941 C 20.283736,14.25751 20.367604,14.108313 20.432942,13.85935 C 20.498262,13.610402 20.54152,13.212249 20.562717,12.664892 L 18.43335,12.664892 C 18.306216,13.830224 17.695304,14.769546 16.600611,15.48286 L 21.193052,15.48286 L 21.193052,18.40147 L 17.013772,18.40147 L 17.013772,20.313663 C 17.013766,20.472572 17.094103,20.576744 17.254782,20.626182 C 17.41545,20.67562 17.928369,20.700339 18.793541,20.700339 C 19.905889,20.700339 20.520332,20.667675 20.636874,20.602346 C 20.753397,20.537018 20.84521,20.429313 20.912314,20.279233 C 20.979399,20.129154 21.028837,19.792799 21.060628,19.270167 L 21.579728,19.444966 z M 20.62628,17.882371 L 20.62628,16.007257 L 19.074279,16.007257 L 19.074279,17.882371 L 20.62628,17.882371 z M 18.523398,17.871777 L 18.523398,16.007257 L 17.013772,16.007257 L 17.013772,17.871777 L 18.523398,17.871777 z M 15.885525,19.942878 L 15.366425,20.191834 C 15.25342,19.563266 15.080387,18.996494 14.847326,18.491518 L 15.355832,18.295532 C 15.574767,18.744007 15.751332,19.293122 15.885525,19.942878 L 15.885525,19.942878 z M 13.194683,18.544488 C 13.152306,19.427311 12.968679,20.29071 12.643802,21.134688 L 12.156484,20.875138 C 12.453111,20.119443 12.629675,19.301951 12.686177,18.422658 L 13.194683,18.544488 z M 14.550698,20.604995 L 14.010411,20.737418 C 13.992752,20.080599 13.902704,19.335498 13.740267,18.502112 L 14.259366,18.449143 C 14.439459,19.268403 14.536569,19.98702 14.550698,20.604995 L 14.550698,20.604995 z M 32.321908,19.381403 C 32.275991,19.745127 32.183295,20.125623 32.043819,20.522892 C 31.904323,20.920162 31.778963,21.161172 31.667737,21.245923 C 31.556492,21.330674 31.440842,21.373049 31.320788,21.37305 C 30.872305,21.373049 30.475036,20.792153 30.128978,19.630359 C 29.627527,20.241272 29.044865,20.815106 28.38099,21.351862 L 27.962532,21.007561 C 28.979537,20.138865 29.655778,19.418483 29.991258,18.846413 C 29.782904,17.56809 29.666371,15.887198 29.64166,13.803733 L 26.13509,13.803733 L 26.13509,16.213837 C 26.135086,18.198424 25.713098,19.88991 24.869123,21.288299 L 24.381805,21.018155 C 25.204593,19.732767 25.615987,17.924749 25.615991,15.594096 L 25.615991,13.295227 L 29.620472,13.295227 L 29.620472,11.83857 L 30.203135,11.83857 C 30.189002,12.438898 30.181939,12.92445 30.181947,13.295227 L 32.221266,13.295227 L 32.221266,13.803733 L 30.203135,13.803733 C 30.217252,15.378693 30.298472,16.792972 30.446794,18.046576 C 30.828164,17.287352 31.177762,16.227967 31.495586,14.868416 L 32.004092,15.127966 C 31.590922,16.791207 31.103605,18.081892 30.542139,19.000024 C 30.609225,19.430842 30.735468,19.842237 30.920869,20.234209 C 31.106253,20.626182 31.239559,20.822169 31.320788,20.822169 C 31.359623,20.822169 31.434663,20.680035 31.545907,20.395766 C 31.657133,20.111498 31.746298,19.667439 31.813402,19.063587 L 32.321908,19.381403 z M 25.171048,13.35879 L 24.747294,13.681903 C 24.327068,13.194593 23.79561,12.69315 23.152917,12.177574 L 23.587266,11.83857 C 24.166395,12.262334 24.694322,12.769073 25.171048,13.35879 L 25.171048,13.35879 z M 31.88756,12.860879 L 31.421429,13.09924 C 31.244856,12.728463 31.059463,12.421241 30.865251,12.177574 L 31.331382,11.918024 C 31.564437,12.228786 31.74983,12.543071 31.88756,12.860879 L 31.88756,12.860879 z M 24.964468,16.007257 L 24.662543,16.452199 C 24.228192,16.063762 23.627874,15.604695 22.861586,15.074996 L 23.221777,14.651242 C 23.89272,15.082065 24.473617,15.534069 24.964468,16.007257 L 24.964468,16.007257 z M 29.403298,16.420417 C 29.064287,16.879489 28.598158,17.373869 28.004908,17.903559 C 28.004902,17.991844 27.994308,18.067766 27.973126,18.131327 C 28.43925,18.586865 28.79591,18.996494 29.043106,19.360215 L 28.677618,19.746891 C 28.448078,19.414952 28.169107,19.07948 27.840703,18.740474 C 27.537007,19.626829 26.998486,20.410774 26.225138,21.092312 L 25.780196,20.758606 C 26.507637,20.130037 26.995837,19.485577 27.244798,18.825225 C 27.493748,18.164877 27.637648,16.953646 27.676498,15.191529 L 26.590627,15.191529 L 26.590627,14.661836 L 29.164936,14.661836 L 29.164936,15.191529 L 28.222082,15.191529 C 28.190294,16.00373 28.153216,16.641127 28.110846,17.103722 C 28.453375,16.771785 28.739409,16.44161 28.968949,16.113195 L 29.403298,16.420417 z M 27.220962,17.776432 L 26.765425,17.945934 C 26.634763,17.313837 26.486449,16.750597 26.320483,16.256213 L 26.786613,16.060226 C 26.987892,16.664081 27.132674,17.236149 27.220962,17.776432 L 27.220962,17.776432 z M 24.847936,17.871777 C 24.431241,19.2172 23.938627,20.370164 23.370091,21.330674 L 22.925149,20.97578 C 23.394809,20.227147 23.876829,19.09537 24.371212,17.580446 L 24.847936,17.871777 z"
       transform="scale(1.014726,0.985488)"
       id="text8575"
       style="font-size:10.84811878px;font-style:normal;font-variant:normal;font-weight:normal;font-stretch:normal;text-align:end;line-height:125%;writing-mode:lr-tb;text-anchor:end;fill:#333333;fill-opacity:1;stroke:none;stroke-width:1px;stroke-linecap:butt;stroke-linejoin:miter;stroke-opacity:1;display:inline;font-family:Microsoft JhengHei" />
    <path
       d="M 85.175064,29.578138 C 81.884497,29.578144 79.297113,29.80667 77.412905,30.263719 C 75.528827,30.720776 74.201958,31.490813 73.432298,32.573829 C 73.432383,31.083439 73.956502,29.938322 75.004621,29.138473 C 76.052924,28.338635 77.691608,27.784706 79.920676,27.476685 C 82.149866,27.168678 85.14857,27.014671 88.916795,27.014663 L 106.19257,27.014663 C 108.50137,27.014671 110.33243,26.950088 111.68577,26.820913 C 113.03921,26.691752 114.25994,26.388705 115.34792,25.911773 C 116.7279,25.15665 117.48422,24.485973 117.61686,23.899742 C 118.28033,24.883411 119.52758,25.658414 121.35862,26.224756 C 123.11012,26.751368 125.72403,27.014671 129.20039,27.014663 L 148.74509,27.014663 C 154.34445,27.014671 158.04639,27.48166 159.85093,28.415632 C 161.68199,29.309874 162.59752,30.695936 162.59754,32.573829 C 161.61565,31.441132 160.24234,30.658678 158.47763,30.22646 C 156.7129,29.794251 154.18522,29.578144 150.8946,29.578138 L 130.99165,29.578138 C 127.06416,29.578144 124.05882,29.347133 121.97562,28.885107 C 119.89246,28.423091 118.43957,27.536307 117.61686,26.224756 C 116.84731,27.576052 115.35459,28.47277 113.13871,28.914914 C 110.92288,29.357069 107.69195,29.578144 103.44596,29.578138 L 85.175064,29.578138 z"
       id="JasmineUPC_bracket"
       style="font-size:110.84521484px;font-style:normal;font-weight:normal;fill:#333333;fill-opacity:1;stroke:none;stroke-width:1px;stroke-linecap:butt;stroke-linejoin:miter;stroke-opacity:1;display:inline;font-family:Microsoft JhengHei" />
    <path
       d="M 109.71559,12.394728 C 107.45203,12.829085 104.85476,13.053322 101.9238,13.067439 L 101.66425,12.490073 C 102.1445,12.504206 102.60004,12.511269 103.03086,12.511261 C 105.28382,12.511269 107.41671,12.301157 109.42956,11.880925 L 109.71559,12.394728 z M 109.49842,13.131003 C 109.21591,13.780767 108.86101,14.377555 108.43373,14.921368 L 107.90404,14.683006 C 108.29601,14.223944 108.6456,13.648344 108.95283,12.956204 L 109.49842,13.131003 z M 106.32026,14.704193 L 105.79586,14.889586 C 105.64754,14.381086 105.41624,13.895534 105.10196,13.432928 L 105.64754,13.215754 C 105.99714,13.823143 106.22137,14.319289 106.32026,14.704193 L 106.32026,14.704193 z M 103.64,14.767757 L 103.09442,14.963743 C 102.98495,14.638871 102.71127,14.162147 102.27339,13.53357 L 102.79249,13.316395 C 103.18093,13.831971 103.46344,14.315758 103.64,14.767757 L 103.64,14.767757 z M 110.20291,17.479789 L 109.64673,17.479789 L 109.64673,15.700018 L 101.86023,15.700018 L 101.86023,17.469195 L 101.28287,17.469195 L 101.28287,15.170324 L 110.20291,15.170324 L 110.20291,17.479789 z M 110.51543,20.822157 L 110.23469,21.362445 C 108.56792,21.079941 107.07771,20.589092 105.76408,19.889896 C 104.61993,20.539654 103.12973,21.01991 101.29346,21.330663 L 100.99154,20.790376 C 102.73246,20.514935 104.14321,20.105306 105.22379,19.561486 C 104.36568,18.922324 103.66825,18.203707 103.1315,17.405632 L 102.75012,17.405632 L 102.75012,16.865344 L 108.69328,16.865344 L 108.69328,17.405632 C 107.7822,18.479147 107.00532,19.197764 106.36263,19.561486 C 107.37964,20.094712 108.7639,20.514935 110.51543,20.822157 L 110.51543,20.822157 z M 107.94642,17.405632 L 103.83599,17.405632 C 104.45043,18.242551 105.10725,18.856995 105.80645,19.248967 C 106.45267,18.899371 107.16599,18.284926 107.94642,17.405632 L 107.94642,17.405632 z M 121.26822,19.301936 C 121.04927,20.128259 120.84533,20.67914 120.65642,20.954581 C 120.46749,21.230021 120.27415,21.367741 120.07641,21.367742 C 119.58202,21.367741 119.16179,20.758594 118.81573,19.540298 C 118.25425,20.232432 117.60273,20.852173 116.86116,21.399524 L 116.49567,20.986362 C 117.47384,20.244792 118.19245,19.517346 118.65153,18.804024 C 118.48202,17.36326 118.36019,15.685898 118.28604,13.771932 L 113.22746,13.771932 L 113.22746,16.203227 C 113.22746,17.668716 113.12505,18.779307 112.92024,19.535001 C 112.71542,20.290698 112.49295,20.885721 112.25283,21.32007 L 111.79729,20.986362 C 112.39055,19.789255 112.68717,18.182519 112.68718,16.166148 L 112.68718,13.226347 L 118.25956,13.226347 C 118.24895,12.77435 118.24895,12.30822 118.25956,11.827956 L 118.81573,11.827956 C 118.80866,12.078686 118.81573,12.544816 118.83692,13.226347 L 121.13579,13.226347 L 121.13579,13.771932 L 118.85811,13.771932 C 118.87223,15.283331 118.96227,16.690549 119.12825,17.993592 C 119.56613,17.082522 119.91749,16.003714 120.18234,14.757163 L 120.69085,14.963743 C 120.33065,16.60933 119.83627,17.947688 119.20771,18.978823 C 119.3207,19.5403 119.47166,19.979945 119.6606,20.29776 C 119.84951,20.615577 119.97575,20.774485 120.03933,20.774485 C 120.14879,20.774485 120.27503,20.586444 120.41806,20.210361 C 120.56107,19.834279 120.67495,19.413173 120.75971,18.947041 L 121.26822,19.301936 z M 120.63788,12.807889 L 120.22472,13.141596 C 119.97046,12.795538 119.69678,12.481253 119.40369,12.198741 L 119.80096,11.849143 C 120.15762,12.191687 120.43659,12.511269 120.63788,12.807889 L 120.63788,12.807889 z M 117.76164,15.255075 L 113.78364,15.255075 L 113.78364,14.746569 L 117.76164,14.746569 L 117.76164,15.255075 z M 117.87288,17.1143 L 116.99359,17.1143 C 116.83467,17.930032 116.60337,18.641586 116.29969,19.248967 C 116.64928,19.44672 116.96357,19.646238 117.24254,19.847521 L 116.91943,20.28187 C 116.64398,20.087649 116.34029,19.888131 116.00836,19.683316 C 115.36919,20.361324 114.59407,20.827454 113.683,21.081707 L 113.41286,20.626171 C 114.3204,20.347199 115.01782,19.946398 115.50515,19.423766 C 114.98957,19.137733 114.44399,18.872886 113.86839,18.629225 C 114.06614,18.19841 114.27625,17.693435 114.49873,17.1143 L 113.69359,17.1143 L 113.69359,16.57931 L 114.68412,16.57931 C 114.82184,16.194403 114.93661,15.828915 115.02842,15.482843 L 115.54752,15.615267 C 115.45924,15.957807 115.36213,16.279154 115.25619,16.57931 L 116.55924,16.57931 C 116.6122,16.300342 116.64398,16.072574 116.65458,15.896004 L 117.17898,15.93838 L 117.08893,16.57931 L 117.87288,16.57931 L 117.87288,17.1143 z M 116.448,17.1143 L 115.0602,17.1143 C 114.90129,17.562778 114.73885,17.974173 114.57289,18.348487 C 114.78123,18.436772 115.20145,18.643352 115.83356,18.968229 C 116.08074,18.505632 116.28556,17.887656 116.448,17.1143 L 116.448,17.1143 z M 131.43304,12.294086 C 131.39772,12.700193 131.35446,13.025072 131.30327,13.268723 C 131.25205,13.512389 131.17437,13.693368 131.0702,13.811659 C 130.96602,13.929964 130.8486,14.012067 130.71795,14.057967 C 130.58729,14.10388 130.25711,14.129482 129.72743,14.134772 C 129.19773,14.140076 128.82871,14.137428 128.62037,14.126827 L 128.40319,13.597133 L 130.41073,13.586539 C 130.52019,13.586546 130.59788,13.551234 130.6438,13.4806 C 130.6897,13.409982 130.7356,13.189276 130.78152,12.818483 L 127.36499,12.818483 C 127.12486,13.316403 126.71346,13.681008 126.13081,13.912301 C 125.54814,14.143607 124.66532,14.291039 123.48234,14.354595 L 123.22808,13.803714 C 125.1491,13.77547 126.31796,13.447061 126.73466,12.818483 L 123.63065,12.818483 L 123.63065,12.294086 L 126.95183,12.294086 C 127.01892,12.149312 127.07012,11.997466 127.10544,11.83855 L 127.70929,11.83855 C 127.6881,11.940966 127.64219,12.092811 127.57157,12.294086 L 131.43304,12.294086 z M 127.26435,14.810132 C 127.26435,15.428114 127.2308,15.863345 127.16371,16.115827 C 127.09661,16.368319 126.98449,16.545767 126.82735,16.64817 C 126.67021,16.750581 126.40095,16.801785 126.01957,16.801781 C 125.83241,16.801785 125.65408,16.792957 125.48458,16.775296 L 125.25681,16.26679 C 126.00544,16.266795 126.41595,16.250904 126.48835,16.219118 C 126.56074,16.187341 126.61459,16.09023 126.64991,15.927786 C 126.68521,15.765352 126.70287,15.571131 126.70288,15.345123 L 125.42102,15.345123 C 125.07495,16.263263 124.33691,16.867114 123.2069,17.156676 L 122.87319,16.679951 C 123.85842,16.450422 124.517,16.005479 124.84895,15.345123 L 122.95794,15.345123 L 122.95794,14.810132 L 124.96548,14.810132 C 125.01138,14.665355 125.0414,14.517041 125.05553,14.365189 L 125.6276,14.365189 C 125.61347,14.538229 125.58875,14.686543 125.55344,14.810132 L 127.26435,14.810132 z M 131.95214,14.810132 C 131.94154,15.248018 131.90181,15.639991 131.83296,15.986052 C 131.76409,16.332124 131.63961,16.565189 131.45953,16.685248 C 131.27942,16.805316 130.84684,16.852989 130.16178,16.828266 L 129.93401,16.298572 C 130.08938,16.305639 130.42661,16.30917 130.94572,16.309166 C 131.21762,16.30917 131.35358,15.987823 131.35359,15.345123 L 129.85985,15.345123 C 129.59853,16.185575 128.91875,16.741753 127.82053,17.013659 L 127.49212,16.558122 C 128.42437,16.356843 129.01763,15.95251 129.27189,15.345123 L 127.70929,15.345123 L 127.70929,14.810132 L 129.41491,14.810132 C 129.45374,14.647699 129.47846,14.504682 129.48907,14.38108 L 130.05584,14.38108 C 130.05583,14.511744 130.03288,14.654761 129.98698,14.810132 L 131.95214,14.810132 z M 130.9775,20.54142 C 130.9775,20.767422 130.90157,20.954581 130.74974,21.102895 C 130.59788,21.251209 130.38159,21.335077 130.10086,21.3545 C 129.82012,21.373921 129.37429,21.37657 128.76338,21.362445 L 128.5568,20.822157 C 129.58793,20.822157 130.15294,20.808032 130.25182,20.779782 C 130.35069,20.751532 130.40013,20.672078 130.40014,20.54142 L 130.40014,19.693909 C 128.43673,20.050571 126.51748,20.306589 124.64237,20.461966 L 124.42519,20.107071 C 124.23097,20.594389 123.93081,21.039332 123.52471,21.441899 L 123.11155,21.018144 C 123.54943,20.682671 123.83458,20.269511 123.96701,19.77866 C 124.09943,19.287812 124.16564,18.438537 124.16564,17.230833 L 130.9775,17.230833 L 130.9775,20.54142 z M 130.40014,19.153622 L 130.40014,17.765824 L 124.71652,17.765824 L 124.71652,18.20547 C 126.13257,18.286692 127.65808,18.431475 129.29308,18.639819 L 129.12358,19.174809 C 127.72518,18.962934 126.23851,18.818151 124.66355,18.740461 C 124.6353,19.195999 124.57703,19.586206 124.48876,19.911084 C 126.25087,19.805146 128.22132,19.552659 130.40014,19.153622 L 130.40014,19.153622 z"
       transform="scale(1.014726,0.985488)"
       id="text2194"
       style="font-size:10.84813023px;font-style:normal;font-variant:normal;font-weight:normal;font-stretch:normal;text-align:end;line-height:125%;writing-mode:lr-tb;text-anchor:end;fill:#333333;fill-opacity:1;stroke:none;stroke-width:1px;stroke-linecap:butt;stroke-linejoin:miter;stroke-opacity:1;display:inline;font-family:Microsoft JhengHei" />
    <path
       d="M 213.11649,23.571508 L 213.11649,30.749597"
       id="path1914"
       style="fill:#333333;fill-rule:evenodd;stroke:#333333;stroke-width:1px;stroke-linecap:butt;stroke-linejoin:miter;stroke-opacity:1;display:inline" />
    <path
       d="M 22.91336,23.571508 L 22.91336,30.749596"
       id="path1917"
       style="fill:#333333;fill-rule:evenodd;stroke:#333333;stroke-width:1px;stroke-linecap:butt;stroke-linejoin:miter;stroke-opacity:1;display:inline" />
    <path
       d="M 26,-23.5 C 26,-15.768014 19.731986,-9.5 12,-9.5 C 4.2680135,-9.5 -2,-15.768014 -2,-23.5 C -2,-31.231986 4.2680135,-37.5 12,-37.5 C 19.731986,-37.5 26,-31.231986 26,-23.5 L 26,-23.5 z"
       transform="matrix(0.887835,0,0,0.887835,170.7619,67.23304)"
       id="path13414"
       style="fill:#ffffff;fill-opacity:1;fill-rule:nonzero;stroke:#676767;stroke-width:0.56972009;stroke-linecap:round;stroke-linejoin:miter;marker:none;marker-start:none;marker-mid:none;marker-end:none;stroke-miterlimit:4;stroke-dasharray:none;stroke-dashoffset:0;stroke-opacity:1;visibility:visible;display:inline;overflow:visible" />
    <path
       d="M 171.76226,51.484634 L 171.76226,42.98527 L 173.43198,42.98527 L 176.91058,48.661176 L 176.91058,42.98527 L 178.50493,42.98527 L 178.50493,51.484634 L 176.78303,51.484634 L 173.35661,45.942075 L 173.35661,51.484634 L 171.76226,51.484634 z M 182.23862,51.484634 L 182.23862,44.423089 L 179.71664,44.423089 L 179.71664,42.98527 L 186.47091,42.98527 L 186.47091,44.423089 L 183.95473,44.423089 L 183.95473,51.484634 L 182.23862,51.484634 z"
       transform="scale(1.014726,0.985488)"
       id="text1899"
       style="font-size:11.87360096px;font-style:normal;font-variant:normal;font-weight:bold;font-stretch:normal;text-align:center;line-height:125%;writing-mode:lr-tb;text-anchor:middle;fill:#333333;fill-opacity:1;stroke:none;stroke-width:1px;stroke-linecap:butt;stroke-linejoin:miter;stroke-opacity:1;display:inline;font-family:FreeSans" />
    <g
       transform="translate(4.947188,6.273199)"
       id="g3041">
      <path
         d="M 204.0764,7.3004158 L 196.66069,7.3004158 C 196.40644,7.5899883 196.03742,7.9095696 195.55363,8.2591606 L 195.11928,7.8671876 C 195.84673,7.3798768 196.6342,6.5871033 197.48172,5.4888647 L 198.03789,5.6954451 C 197.77657,6.0521136 197.48701,6.4140703 197.1692,6.7813163 L 204.0764,6.7813163 L 204.0764,7.3004158 z M 204.45778,12.019983 L 195.02924,12.019983 L 195.02924,11.479696 L 196.6395,11.479696 L 196.6395,9.6257694 L 195.24641,9.6257694 L 195.24641,9.0695914 L 196.6395,9.0695914 L 196.6395,7.755952 L 197.19038,7.755952 L 197.19038,9.0695914 L 198.58877,9.0695914 L 198.58877,7.755952 L 199.14495,7.755952 L 199.14495,9.0695914 L 200.55394,9.0695914 L 200.55394,7.755952 L 201.09422,7.755952 L 201.09422,9.0695914 L 202.54029,9.0695914 L 202.54029,7.755952 L 203.06998,7.755952 L 203.06998,9.0695914 L 204.2406,9.0695914 L 204.2406,9.6257694 L 203.06998,9.6257694 L 203.06998,11.479696 L 204.45778,11.479696 L 204.45778,12.019983 z M 202.54029,11.479696 L 202.54029,9.6257694 L 201.09422,9.6257694 L 201.09422,11.479696 L 202.54029,11.479696 z M 200.55394,11.479696 L 200.55394,9.6257694 L 199.14495,9.6257694 L 199.14495,11.479696 L 200.55394,11.479696 z M 198.58877,11.479696 L 198.58877,9.6257694 L 197.19038,9.6257694 L 197.19038,11.479696 L 198.58877,11.479696 z M 197.01559,12.6821 C 196.52473,13.568454 196.00387,14.334743 195.45299,14.980969 L 195.00805,14.636668 C 195.56952,14.008099 196.07626,13.27006 196.52827,12.42255 L 197.01559,12.6821 z M 204.44718,14.732013 L 203.94927,14.991562 C 203.62085,14.235867 203.17591,13.473109 202.61444,12.703287 L 203.13354,12.443738 C 203.7056,13.273592 204.14348,14.036349 204.44718,14.732013 L 204.44718,14.732013 z M 201.74575,14.800873 L 201.21605,15.002156 C 201.0642,14.370056 200.7817,13.589642 200.36854,12.660912 L 200.88764,12.464925 C 201.22311,13.146465 201.50914,13.925114 201.74575,14.800873 L 201.74575,14.800873 z M 199.02312,14.87503 L 198.47224,14.980969 C 198.45105,14.18996 198.33805,13.398952 198.13324,12.607943 L 198.67882,12.486113 C 198.87657,13.262998 198.99134,14.059303 199.02312,14.87503 L 199.02312,14.87503 z M 215.28471,8.7888539 L 207.74717,8.7888539 C 207.73304,10.702816 207.61563,12.065009 207.39493,12.875438 C 207.17422,13.685869 206.83257,14.377118 206.36997,14.949187 L 205.87735,14.604886 C 206.73546,13.605533 207.16451,11.912281 207.16451,9.5251276 C 207.16451,9.1508163 207.15568,8.7464842 207.13802,8.31213 C 206.90143,8.4710439 206.64541,8.6299518 206.36997,8.7888539 L 205.9674,8.3227238 C 207.3446,7.5599724 208.42518,6.6224162 209.20912,5.5100524 L 209.82887,5.6530696 C 209.72645,5.8472991 209.54989,6.0856608 209.29917,6.3681556 L 213.18182,6.3681556 L 213.18182,6.9455213 C 212.68391,7.4646277 212.24249,7.8954445 211.85759,8.2379729 L 215.28471,8.2379729 L 215.28471,8.7888539 z M 212.42966,6.9243335 L 208.78537,6.9243335 C 208.3263,7.3904707 207.8125,7.82835 207.24396,8.2379729 L 211.05246,8.2379729 C 211.58214,7.7895059 212.04121,7.3516265 212.42966,6.9243335 L 212.42966,6.9243335 z M 215.26352,13.063479 C 215.22466,13.564923 215.1408,13.973669 215.01191,14.289719 C 214.88301,14.605769 214.64112,14.785865 214.28624,14.830006 C 213.93133,14.874147 213.03174,14.896217 211.58745,14.896218 C 210.61987,14.896217 210.01602,14.89092 209.7759,14.880327 C 209.53576,14.869733 209.34861,14.790279 209.21442,14.641965 C 209.08023,14.493651 209.01313,14.336509 209.01314,14.170538 L 209.01314,9.9912577 L 214.24121,9.9912577 C 214.22001,10.775207 214.1794,11.417019 214.11938,11.916693 C 214.05934,12.416372 213.89867,12.713 213.63736,12.806578 C 213.37604,12.900158 212.77925,12.93812 211.847,12.920462 L 211.57685,12.327205 C 211.91938,12.355458 212.23367,12.369583 212.51971,12.369581 C 212.9823,12.369583 213.27716,12.336918 213.4043,12.271587 C 213.53141,12.206261 213.61616,11.624482 213.65855,10.526248 L 209.5905,10.526248 L 209.5905,14.016927 C 209.5905,14.172304 209.65495,14.269414 209.78384,14.308258 C 209.91273,14.347102 210.51923,14.366524 211.60334,14.366524 C 212.14009,14.366524 212.69009,14.358579 213.25333,14.342688 C 213.81657,14.326798 214.12997,14.310907 214.19354,14.295016 C 214.25709,14.279125 214.32066,14.244695 214.38423,14.191726 C 214.44778,14.138757 214.49545,14.069897 214.52725,13.985145 C 214.55902,13.900395 214.62435,13.524313 214.72323,12.856898 L 215.26352,13.063479 z"
         transform="scale(1.014726,0.985488)"
         id="text3037"
         style="font-size:10.84811878px;font-style:normal;font-variant:normal;font-weight:normal;font-stretch:normal;text-align:end;line-height:125%;writing-mode:lr-tb;text-anchor:end;fill:#333333;fill-opacity:1;stroke:none;stroke-width:1px;stroke-linecap:butt;stroke-linejoin:miter;stroke-opacity:1;display:inline;font-family:Microsoft JhengHei" />
    </g>
    <path
       d="M 225.54611,46.368878 C 225.54611,53.233605 219.98115,58.798568 213.11642,58.798568 C 206.25169,58.798568 200.68673,53.233605 200.68673,46.368878 C 200.68673,39.50415 206.25169,33.939188 213.11642,33.939188 C 219.98115,33.939188 225.54611,39.50415 225.54611,46.368878 L 225.54611,46.368878 z"
       id="path2072"
       style="fill:#006666;fill-opacity:1;fill-rule:nonzero;stroke:#676767;stroke-width:0.50581741;stroke-linecap:round;stroke-linejoin:miter;marker:none;marker-start:none;marker-mid:none;marker-end:none;stroke-miterlimit:4;stroke-dasharray:none;stroke-dashoffset:0;stroke-opacity:1;visibility:visible;display:inline;overflow:visible" />
    <path
       d="M 205.85389,50.737501 L 205.85389,42.430037 L 207.59527,42.430037 L 207.59527,49.32626 L 211.92519,49.32626 L 211.92519,50.737501 L 205.85389,50.737501 z M 218.69068,47.657911 L 220.37912,48.177842 C 220.12025,49.092008 219.68981,49.770964 219.08779,50.214713 C 218.48575,50.658464 217.72193,50.880338 216.79634,50.880338 C 215.65111,50.880338 214.70982,50.500389 213.97248,49.74049 C 213.23514,48.980594 212.86647,47.941686 212.86647,46.623763 C 212.86647,45.229669 213.23711,44.146957 213.97837,43.375626 C 214.71962,42.604308 215.69425,42.218645 216.90224,42.218637 C 217.95726,42.218645 218.81422,42.521462 219.47313,43.127086 C 219.86532,43.485142 220.15947,43.999359 220.35557,44.669738 L 218.63185,45.069685 C 218.52987,44.635464 218.3171,44.292652 217.99354,44.041251 C 217.66997,43.789863 217.27678,43.664166 216.81399,43.664158 C 216.1747,43.664166 215.65601,43.886992 215.25793,44.332641 C 214.85984,44.778301 214.6608,45.500109 214.6608,46.498065 C 214.6608,47.556975 214.8569,48.31116 215.24911,48.760622 C 215.6413,49.210087 216.15117,49.434819 216.7787,49.434817 C 217.24149,49.434819 217.63957,49.29198 217.97295,49.006303 C 218.30631,48.720629 218.54556,48.271165 218.69068,47.657911 L 218.69068,47.657911 z"
       id="text3021"
       style="font-size:11.87360668px;font-style:normal;font-variant:normal;font-weight:bold;font-stretch:normal;text-align:center;line-height:125%;writing-mode:lr-tb;text-anchor:middle;fill:#ffffff;fill-opacity:1;stroke:none;stroke-width:1px;stroke-linecap:butt;stroke-linejoin:miter;stroke-opacity:1;display:inline;font-family:FreeSans" />
  </g>
</svg>
